<svg xmlns="http://www.w3.org/2000/svg" viewBox="0 0 1766.68 411.5"><g id="a623d3ea-c1ad-4ca4-9f83-16faa2ca5a71" data-name="Mathwei Logo"><g id="a763c1fa-05f1-4e42-8209-57d335e5293b" data-name="background"><path d="M78.42,591.29a49.33,49.33,0,0,0,49.34,49.33H279.4a49.33,49.33,0,0,0,49.33-49.33V514.78H78.42Z" transform="translate(-78.42 -334)" fill="#b71918"/><path d="M279.4,390.32H127.76a49.34,49.34,0,0,0-49.34,49.33v75.13H328.73V439.65A49.34,49.34,0,0,0,279.4,390.32Z" transform="translate(-78.42 -334)" fill="#db797a"/></g><polygon points="59.01 74.42 32.58 106.12 32.58 289.01 59.01 257.31 59.01 74.42" fill="#fff"/><polygon points="173.18 73 135.29 110.59 135.29 119.52 135.29 125.3 135.29 126.66 134.96 126.26 125 138.15 115.38 126.66 115.38 125.3 115.38 119.52 115.38 111.58 76.98 73.48 76.98 147.62 99.98 180.54 82.81 212.82 82.44 213.51 76.98 223.78 76.98 288.69 115.38 250.59 115.38 244.31 115.38 244.17 115.38 237.17 125 225.68 134.96 237.57 135.29 237.17 135.29 244.17 135.29 244.31 135.29 252.09 173.18 289.69 173.18 224.15 167.28 213.07 166.92 212.39 149.75 180.1 173.18 146.57 173.18 73" fill="#fff"/><polygon points="191.15 74.8 217.58 106.5 217.58 289.39 191.15 257.69 191.15 74.8" fill="#fff"/><polygon points="58.95 257.47 58.95 181 32.52 181 32.52 289.17 58.95 257.47" fill="#e79798"/><polygon points="82.38 213.66 76.92 223.93 76.92 288.85 115.32 250.74 115.32 244.47 115.32 244.33 115.32 237.33 124.94 225.84 134.9 237.72 135.23 237.33 135.23 244.33 135.23 244.47 135.23 252.25 173.12 289.84 173.12 224.3 167.22 213.23 166.86 212.54 150.08 181 99.76 181 82.75 212.98 82.38 213.66" fill="#e79798"/><polygon points="217.52 289.54 217.52 181 191.09 181 191.09 257.85 217.52 289.54" fill="#e79798"/></g><g id="f1a7075f-a275-466d-911a-d95720d8a521" data-name="Mathwei Letters"><text transform="translate(1063.97 304.56) scale(0.93 1)" font-size="352.69" fill="#4a6aad" font-family="Verdana-Bold, Verdana" font-weight="700" letter-spacing="-0.06em">wae</text><text transform="translate(264.31 306.08) scale(0.93 1)" font-size="341.7" fill="#16387c" font-family="Verdana-Bold, Verdana" font-weight="700" letter-spacing="-0.06em">Math</text></g></svg>