<svg id="b2801c60-d8e2-491b-acce-fee2e57619c9" data-name="Mathwea logo" xmlns="http://www.w3.org/2000/svg" viewBox="0 0 1766.68 411.5"><g id="f76e4e44-fd30-4e89-ad7b-0062289c6987" data-name="background"><path d="M0,255.29a49.33,49.33,0,0,0,49.33,49.33H201a49.33,49.33,0,0,0,49.34-49.33V178.78H0Z" fill="#b71918"/><path d="M201,54.32H49.33A49.34,49.34,0,0,0,0,103.65v75.13H250.31V103.65A49.34,49.34,0,0,0,201,54.32Z" fill="#db797a"/></g><g id="b4ffb4f3-26ff-4c50-a519-41e7634c1b61" data-name="Mathwei Logo"><g id="acf65a03-bff2-4369-9ebf-6162ebb660ee" data-name="M"><path d="M225.32,80.69H156.58l-31.5,73.1L94.2,80.69H25V281H94.12l30.64-72.64L156.11,281h69.21Zm-124,98.16-40.62,77a.57.57,0,0,1-1.06-.23V105.73a.57.57,0,0,1,1-.37.41.41,0,0,1,.1.13l40.62,72.89A.52.52,0,0,1,101.36,178.85Zm90.19,76.83a.57.57,0,0,1-1.06.23l-40.62-77a.5.5,0,0,1,0-.46l40.62-72.9a.41.41,0,0,1,.1-.13.57.57,0,0,1,1,.37Z" fill="#fff"/><path d="M94,281.1l30.64-72.63L156,281.1l69.21-.46V178.55l-33.77.46v76.75a.56.56,0,0,1-1.05.23L149.8,179H101.24L60.66,255.92a.56.56,0,0,1-1-.23V179H24.91V281.1Z" fill="#e79798"/></g></g><g id="f3663f2f-516e-4773-be82-de8a29355d0e" data-name="Mathwei Letters"><text transform="translate(1063.97 304.56) scale(0.93 1)" font-size="352.69" fill="#4a6aad" font-family="Verdana-Bold, Verdana" font-weight="700" letter-spacing="-0.06em">wae</text><text transform="translate(264.31 304.08) scale(0.93 1)" font-size="341.7" fill="#16387c" font-family="Verdana-Bold, Verdana" font-weight="700" letter-spacing="-0.06em">Math</text></g></svg>